<?xml version="1.0" standalone="no"?>
<!DOCTYPE svg PUBLIC "-//W3C//DTD SVG 20010904//EN"
 "http://www.w3.org/TR/2001/REC-SVG-20010904/DTD/svg10.dtd">
<svg version="1.0" xmlns="http://www.w3.org/2000/svg"
 width="64.000000pt" height="64.000000pt" viewBox="0 0 64.000000 64.000000"
 preserveAspectRatio="xMidYMid meet">

<g transform="translate(0.000000,64.000000) scale(0.100000,-0.100000)"
fill="#000000" stroke="none">
<path d="M106 614 c-8 -20 -8 -568 0 -588 5 -14 34 -16 214 -16 180 0 209 2
214 16 8 20 8 568 0 588 -5 14 -34 16 -214 16 -180 0 -209 -2 -214 -16z m384
-184 l0 -160 -170 0 -170 0 0 160 0 160 170 0 170 0 0 -160z m-250 -245 c0
-18 5 -25 20 -25 13 0 20 -7 20 -20 0 -13 -7 -20 -20 -20 -15 0 -20 -7 -20
-25 0 -20 -5 -25 -25 -25 -20 0 -25 5 -25 25 0 18 -5 25 -20 25 -13 0 -20 7
-20 20 0 13 7 20 20 20 15 0 20 7 20 25 0 20 5 25 25 25 20 0 25 -5 25 -25z
m145 -45 c0 -18 -6 -26 -23 -28 -13 -2 -25 3 -28 12 -10 26 4 48 28 44 17 -2
23 -10 23 -28z m103 2 c4 -28 -24 -40 -45 -19 -21 21 -9 49 19 45 15 -2 24
-11 26 -26z"/>
<path d="M181 538 l-1 -28 88 1 c48 1 79 3 70 6 -10 2 -18 13 -18 24 0 10 -4
19 -10 19 -5 0 -10 -9 -10 -20 0 -12 -7 -20 -16 -20 -11 0 -15 6 -11 20 3 11
1 20 -4 20 -5 0 -9 -9 -9 -20 0 -27 -28 -25 -33 3 l-4 22 -2 -22 c0 -13 -7
-23 -15 -23 -8 0 -17 10 -19 23 -4 19 -4 18 -6 -5z"/>
<path d="M411 393 c-1 -31 -5 -43 -16 -43 -8 0 -15 9 -15 20 0 11 -4 20 -9 20
-5 0 -7 -9 -4 -21 5 -16 1 -20 -13 -19 -10 1 -49 2 -86 1 -66 -1 -68 -2 -68
-26 0 -25 1 -25 86 -25 77 0 86 2 91 20 4 16 14 20 44 20 l39 0 -1 48 c-1 26
-4 37 -6 25 -2 -13 -11 -23 -18 -23 -7 0 -16 10 -18 23 -2 12 -5 3 -6 -20z
m39 -28 c0 -8 -7 -15 -15 -15 -8 0 -15 7 -15 15 0 8 7 15 15 15 8 0 15 -7 15
-15z m-210 -40 c0 -8 -7 -15 -15 -15 -8 0 -15 7 -15 15 0 8 7 15 15 15 8 0 15
-7 15 -15z m40 0 c0 -8 -7 -15 -15 -15 -8 0 -15 7 -15 15 0 8 7 15 15 15 8 0
15 -7 15 -15z m40 0 c0 -8 -7 -15 -15 -15 -8 0 -15 7 -15 15 0 8 7 15 15 15 8
0 15 -7 15 -15z m50 0 c0 -8 -7 -15 -15 -15 -8 0 -15 7 -15 15 0 8 7 15 15 15
8 0 15 -7 15 -15z"/>
</g>
</svg>
